<svg width="64" height="64" viewBox="0 0 64 64" fill="none" xmlns="http://www.w3.org/2000/svg">
<rect width="64" height="64" rx="32" fill="white"/>
<path d="M16.0804 22.2136L20.1019 24.3686V45.2721L16.0804 42.0396V22.2136Z" fill="#6A9DF1"/>
<path d="M24.0176 26.7391L28.0391 28.9445V49.636L24.0176 47.0284V26.7391Z" fill="#6A9DF1"/>
<path d="M20.0491 24.4764L15.9746 22.1597L32.3252 11.7619L32.3252 16.7723L20.0491 24.4764Z" fill="#6A9DF1"/>
<path d="M28.0391 29.0019L23.9483 26.7936L32.3252 21.3516L32.3252 26.3081L28.0391 29.0019Z" fill="#6A9DF1"/>
<path d="M40.2624 31.5879V26.6695L32.244 21.4594V26.4697L40.2624 31.5879Z" fill="#6A9DF1"/>
<path d="M47.9741 26.6695L48.3583 22.052L32.3252 11.7619L32.3252 16.8261L47.9741 26.6695Z" fill="#6A9DF1"/>
<path d="M32.0077 52.222L32.0078 47.3194L24.0824 42.0396L24.0824 47.05L32.0077 52.222Z" fill="#6A9DF1"/>
<path d="M31.9496 52.243L31.9496 47.3404L44.7072 39.3459L44.7072 44.464L31.9496 52.243Z" fill="#6A9DF1"/>
<path d="M48.3583 22.2136L44.3368 24.3686L44.0194 44.895L48.3583 42.0396V22.2136Z" fill="#6A9DF1"/>
<path d="M40.3153 32.2344L36.2938 34.6588V49.5821L40.3153 47.1039V32.2344Z" fill="#6A9DF1"/>
</svg>
