<svg width="40" height="50" viewBox="0 0 40 50" fill="none" xmlns="http://www.w3.org/2000/svg">
<path d="M1.25852 13.6008L5.94278 16.111V40.4594L1.25852 36.6942V13.6008Z" fill="#0939B1"/>
<path d="M10.5038 18.8721L15.188 21.4409V45.5424L10.5038 42.505V18.8721Z" fill="#0939B1"/>
<path d="M5.88117 16.2365L1.13525 13.5381L20.1804 1.42664L20.1804 7.26273L5.88117 16.2365Z" fill="#0939B1"/>
<path d="M15.188 21.5078L10.423 18.9356L20.1804 12.5968L20.1804 18.3701L15.188 21.5078Z" fill="#0939B1"/>
<path d="M29.4257 24.5199V18.791L20.0859 12.7223V18.5583L29.4257 24.5199Z" fill="#0939B1"/>
<path d="M38.4083 18.791L38.8558 13.4125L20.1804 1.42664L20.1804 7.32544L38.4083 18.791Z" fill="#0939B1"/>
<path d="M19.8106 48.5546L19.8107 42.844L10.5792 36.6942L10.5792 42.5303L19.8106 48.5546Z" fill="#0939B1"/>
<path d="M19.7429 48.579L19.7429 42.8684L34.6029 33.5565L34.603 39.5181L19.7429 48.579Z" fill="#0939B1"/>
<path d="M38.8558 13.6008L34.1716 16.111L33.8018 40.0201L38.8558 36.6942V13.6008Z" fill="#0939B1"/>
<path d="M29.4873 25.273L24.8031 28.0969V45.4797L29.4873 42.593V25.273Z" fill="#0939B1"/>
</svg>
